<svg width="24" height="24" viewBox="0 0 24 24" fill="none" xmlns="http://www.w3.org/2000/svg">
<path d="M16.4989 0C15.2194 0.0884995 13.7239 0.907495 12.8524 1.97399C12.0574 2.94148 11.4034 4.37847 11.6584 5.77497C13.0564 5.81847 14.5009 4.97997 15.3379 3.89548C16.1209 2.88598 16.7134 1.45799 16.4989 0Z" fill="white"/>
<path d="M21.5555 8.05192C20.327 6.51143 18.6005 5.61743 16.97 5.61743C14.8175 5.61743 13.907 6.64793 12.4116 6.64793C10.8696 6.64793 9.69807 5.62043 7.83658 5.62043C6.00809 5.62043 4.0611 6.73792 2.82661 8.64891C1.09112 11.3399 1.38812 16.3994 4.2006 20.7088C5.20709 22.2508 6.55108 23.9848 8.30907 23.9998C9.87356 24.0148 10.3146 22.9963 12.4341 22.9858C14.5535 22.9738 14.9555 24.0133 16.517 23.9968C18.2765 23.9833 19.694 22.0618 20.7005 20.5198C21.422 19.4144 21.6905 18.8579 22.25 17.6099C18.1805 16.0604 17.528 10.2734 21.5555 8.05192Z" fill="white"/>
</svg>
