<svg width="48" height="48" viewBox="0 0 48 48" fill="none" xmlns="http://www.w3.org/2000/svg">
<g clip-path="url(#clip0_0_59)">
<path d="M46.5938 0H32.0625C31.2859 0 30.6562 0.629625 30.6562 1.40625V5.15625C30.6562 5.93288 31.2859 6.5625 32.0625 6.5625H36.7971L28.6781 14.6814C25.7263 12.6367 22.144 11.4375 18.2812 11.4375C8.18475 11.4375 0 19.6222 0 29.7188C0 39.8152 8.18475 48 18.2812 48C28.3778 48 36.5625 39.8152 36.5625 29.7188C36.5625 25.8559 35.3633 22.2737 33.3186 19.3218L41.4375 11.2028V15.9375C41.4375 16.7141 42.0671 17.3438 42.8438 17.3438H46.5938C47.3704 17.3438 48 16.7141 48 15.9375V1.40625C48 0.629625 47.3704 0 46.5938 0ZM18.2812 41.4375C11.8091 41.4375 6.5625 36.1908 6.5625 29.7188C6.5625 23.2466 11.8091 18 18.2812 18C24.7534 18 30 23.2466 30 29.7188C30 36.1908 24.7534 41.4375 18.2812 41.4375Z" fill="black"/>
</g>
<defs>
<clipPath id="clip0_0_59">
<rect width="48" height="48" fill="white"/>
</clipPath>
</defs>
</svg>
