<svg width="24" height="24" viewBox="0 0 24 24" fill="none" xmlns="http://www.w3.org/2000/svg">
<g clip-path="url(#clip0_0_15)">
<path fill-rule="evenodd" clip-rule="evenodd" d="M15.7721 5.94525L19.6595 2.76262C17.5813 1.03716 14.9116 0 12 0C7.36219 0 3.33893 2.63074 1.34176 6.48126H1.34175C0.483938 8.13356 0 10.0101 0 11.9999C0 14.0578 0.517594 15.9942 1.43011 17.6867L1.43008 17.6869C3.45691 21.4458 7.43008 24.0001 12 24.0001C14.8437 24.0001 17.456 23.011 19.5125 21.3581L19.5118 21.3574L19.5117 21.3573L19.512 21.3573L19.5126 21.358C21.6271 19.6582 23.1535 17.2563 23.7377 14.5055C23.9097 13.6971 24.0001 12.8591 24.0001 12C24.0001 11.2338 23.9282 10.4841 23.7904 9.75822H18.7742H12.2639V14.5055H18.6806C18.103 16.047 17.0065 17.3347 15.6034 18.1576L15.6035 18.1578L15.6033 18.1576C14.5464 18.7781 13.3147 19.1335 12 19.1335C8.94129 19.1335 6.33227 17.2082 5.31888 14.5036L5.31891 14.5034C5.02617 13.7248 4.86661 12.8808 4.86652 11.9999C4.86652 11.1883 5.00236 10.4083 5.25159 9.68172L5.25163 9.68175C6.21425 6.88017 8.87206 4.86656 12 4.86656C13.3852 4.86656 14.6782 5.26153 15.7721 5.94525Z" fill="white"/>
</g>
<defs>
<clipPath id="clip0_0_15">
<rect width="24" height="24" fill="white"/>
</clipPath>
</defs>
</svg>
