<svg width="48" height="48" viewBox="0 0 48 48" fill="none" xmlns="http://www.w3.org/2000/svg">
<path d="M39.4688 15.4688C39.4688 6.92559 32.5432 0 24 0C15.4568 0 8.53125 6.92559 8.53125 15.4688C8.53125 22.8858 13.7519 29.0826 20.7188 30.5876V34.875H15.5625C14.7859 34.875 14.1562 35.5046 14.1562 36.2812V40.0312C14.1562 40.8079 14.7859 41.4375 15.5625 41.4375H20.7188V46.5938C20.7188 47.3704 21.3484 48 22.125 48H25.875C26.6516 48 27.2812 47.3704 27.2812 46.5938V41.4375H32.4375C33.2141 41.4375 33.8438 40.8079 33.8438 40.0312V36.2812C33.8438 35.5046 33.2141 34.875 32.4375 34.875H27.2812V30.5876C34.2481 29.0826 39.4688 22.8858 39.4688 15.4688ZM15.0938 15.4688C15.0938 10.55 19.0812 6.5625 24 6.5625C28.9188 6.5625 32.9062 10.55 32.9062 15.4688C32.9062 20.3875 28.9188 24.375 24 24.375C19.0812 24.375 15.0938 20.3875 15.0938 15.4688Z" fill="white"/>
</svg>
