<svg width="7" height="7" viewBox="0 0 7 7" fill="none" xmlns="http://www.w3.org/2000/svg">
<path d="M6.72113 5.40658C7.08472 5.77017 7.08472 6.35834 6.72113 6.72086C6.53933 6.90266 6.30407 6.99997 6.0581 6.99997C5.82284 6.99997 5.58757 6.91442 5.40578 6.72086L3.50226 4.82911L1.59874 6.72086C1.41694 6.90266 1.18168 6.99997 0.935718 6.99997C0.700452 6.99997 0.454492 6.90266 0.272695 6.72086C-0.0908983 6.35834 -0.0908983 5.77017 0.272695 5.39588L2.17621 3.50306L0.272695 1.59847C-0.0908983 1.23595 -0.0908983 0.63709 0.272695 0.273497C0.636288 -0.0911656 1.22445 -0.0911656 1.59874 0.273497L3.50226 2.17595L5.39508 0.273497C5.76937 -0.0911656 6.35753 -0.0911656 6.72113 0.273497C7.08472 0.63709 7.08472 1.23595 6.72113 1.59847L4.81761 3.50306L6.72113 5.40658Z" fill="white"/>
</svg>
